<svg id="Layer_3" enable-background="new 0 0 64 64" height="512" viewBox="0 0 64 64" width="512" xmlns="http://www.w3.org/2000/svg"><path d="m24 17h-3v-5c0-.552-.447-1-1-1h-1v-2h6v3c0 .552.447 1 1 1h4c.553 0 1-.448 1-1v-4c0-2.757-2.243-5-5-5h-7v-1c0-.552-.447-1-1-1h-8c-.553 0-1 .448-1 1v9h-1c-.553 0-1 .448-1 1v5h-3c-1.654 0-3 1.346-3 3v42c0 .552.447 1 1 1h24c.553 0 1-.448 1-1v-42c0-1.654-1.346-3-3-3zm2-12c1.654 0 3 1.346 3 3v3h-2v-3c0-.552-.447-1-1-1h-7v-2zm-15-2h6v8h-6zm-2 10h10v4h-10zm-5 6h20c.552 0 1 .449 1 1v5h-22v-5c0-.551.448-1 1-1zm21 8v26h-22v-26zm-22 34v-6h22v6z"/><path d="m8 43h3v3c0 .552.447 1 1 1h4c.553 0 1-.448 1-1v-3h3c.553 0 1-.448 1-1v-4c0-.552-.447-1-1-1h-3v-3c0-.552-.447-1-1-1h-4c-.553 0-1 .448-1 1v3h-3c-.553 0-1 .448-1 1v4c0 .552.447 1 1 1zm1-4h3c.553 0 1-.448 1-1v-3h2v3c0 .552.447 1 1 1h3v2h-3c-.553 0-1 .448-1 1v3h-2v-3c0-.552-.447-1-1-1h-3z"/><path d="m53.293 9.293 1.414 1.414 1.293-1.293v2.586h2v-2.586l1.293 1.293 1.414-1.414-1.293-1.293h2.586v-2h-2.586l1.293-1.293-1.414-1.414-1.293 1.293v-2.586h-2v2.586l-1.293-1.293-1.414 1.414 1.293 1.293h-2.586v2h2.586z"/><path d="m37.707 49.707-1.414-1.414-1.293 1.293v-2.586h-2v2.586l-1.293-1.293-1.414 1.414 1.293 1.293h-2.586v2h2.586l-1.293 1.293 1.414 1.414 1.293-1.293v2.586h2v-2.586l1.293 1.293 1.414-1.414-1.293-1.293h2.586v-2h-2.586z"/><path d="m60.707 54.707-1.414-1.414-1.293 1.293v-2.586h-2v2.586l-1.293-1.293-1.414 1.414 1.293 1.293h-2.586v2h2.586l-1.293 1.293 1.414 1.414 1.293-1.293v2.586h2v-2.586l1.293 1.293 1.414-1.414-1.293-1.293h2.586v-2h-2.586z"/><path d="m34.293 16.293 1.414 1.414 1.293-1.293v2.586h2v-2.586l1.293 1.293 1.414-1.414-1.293-1.293h2.586v-2h-2.586l1.293-1.293-1.414-1.414-1.293 1.293v-2.586h-2v2.586l-1.293-1.293-1.414 1.414 1.293 1.293h-2.586v2h2.586z"/><path d="m46.707 31.293-2-2c-.187-.188-.441-.293-.707-.293h-2c-.266 0-.52.105-.707.293l-2 2c-.188.187-.293.442-.293.707v4c0 .265.105.52.293.707l2 2c.195.195.451.293.707.293s.512-.098.707-.293l2-2c.188-.187.293-.442.293-.707v-1.586l1.707-1.707c.391-.391.391-1.023 0-1.414zm-3.414 2c-.188.187-.293.442-.293.707v1.586l-1 1-1-1v-3.172l1.414-1.414h1.172l1 1z"/><path d="m57 32v-4c0-.265-.105-.52-.293-.707l-2-2c-.187-.188-.441-.293-.707-.293h-2c-.266 0-.52.105-.707.293l-2 2c-.391.391-.391 1.023 0 1.414l1.707 1.707v1.586c0 .265.105.52.293.707l2 2c.195.195.451.293.707.293s.512-.098.707-.293l2-2c.188-.187.293-.442.293-.707zm-2-.414-1 1-1-1v-1.586c0-.265-.105-.52-.293-.707l-1.293-1.293 1-1h1.172l1.414 1.414z"/><path d="m63 34c0-7.72-6.28-14-14-14s-14 6.28-14 14 6.28 14 14 14 14-6.28 14-14zm-14 12c-6.617 0-12-5.383-12-12s5.383-12 12-12 12 5.383 12 12-5.383 12-12 12z"/><path d="m51.707 36.293c-.187-.188-.441-.293-.707-.293h-2c-.266 0-.52.105-.707.293l-2 2c-.188.187-.293.442-.293.707v4c0 .552.447 1 1 1h4c.553 0 1-.448 1-1v-1.586l1.707-1.707c.391-.391.391-1.023 0-1.414zm-1.414 4c-.188.187-.293.442-.293.707v1h-2v-2.586l1.414-1.414h1.172l1 1z"/><path d="m57 34v1.586l-1.707 1.707 1.414 1.414 2-2c.188-.187.293-.442.293-.707v-2z"/><path d="m47.707 26.707c.188-.187.293-.442.293-.707v-2h-2v1.586l-1.707 1.707 1.414 1.414z"/></svg>